# xmcd
#
# Track frame offsets:
#	150
#	13567
#	26866
#	42134
#	54449
#	68716
#	83321
#	94705
#	107254
#	120796
#	133637
#	150872
#
# Disc length: 2176 seconds
#
# Revision: 0
# Processed by: cddbd v1.5.2PL0 Copyright (c) Steve Scherf et al.
# Submitted via: EZCDAudioConverter 2.1.3.1
#
DISCID=78087e0c
DTITLE=Volume Five - The Day We Learn To Fly
DYEAR=2014
DGENRE=Bluegrass Gospel
TTITLE0=The Day We Learn To Fly`
TTITLE1=Miracle Today
TTITLE2=Color between  The Lines
TTITLE3=Nothing But The Water
TTITLE4=Until I Found the Lord
TTITLE5=Thanks Again
TTITLE6=What Could I do
TTITLE7=Heart Of Me
TTITLE8=In the Time You gave Me
TTITLE9=When We Are Called to Meet Him
TTITLE10=Daddy Doesn't Pray Anymore
TTITLE11=Get Down And Pray
EXTD=
EXTT0=
EXTT1=
EXTT2=
EXTT3=
EXTT4=
EXTT5=
EXTT6=
EXTT7=
EXTT8=
EXTT9=
EXTT10=
EXTT11=
PLAYORDER=
